# xmcd CD database file
#
# Track frame offsets:
#	150
#	10640
#	26013
#	40678
#	53301
#	65066
#	77882
#	86733
#	96511
#	107572
#	118583
#	129920
#	140124
#	150086
#	163316
#	177466
#	190334
#	205163
#	211234
#	219251
#
# Disc length: 3143 seconds
#
# Revision: 8
# Processed by: cddbd v1.5.2PL0 Copyright (c) Steve Scherf et al.
# Submitted via: CDex 1.95
#
DISCID=0f0c4514
DTITLE=Various Artist - Great Country Hits Vol10 CD1
DYEAR=1999
DGENRE=Oldies
TTITLE0=Tammy Wynette - Another Chance
TTITLE1=Tex Ritter - Hillbilly Heaven
TTITLE2=Osmond Brothers - Yes Ma'am
TTITLE3=Willie Nelson - Any Ols Arms Won't You
TTITLE4=Terri Gibbs - Don't Let Me Loose My Mind
TTITLE5=George Jones - When I Wake Up From Dreaming
TTITLE6=Johnny Paycheck - The Johnsons Of Turkey Ridge
TTITLE7=Merle Haggard - Take Me Back To Tulsa
TTITLE8=Mickey Gilley - It All Depends
TTITLE9=Oak Ridge Quartet - It's Different Now
TTITLE10=Porter Wagoner - Ole Slew Foot
TTITLE11=Razzy Bailey - Quarter To Three
TTITLE12=Rex Allen - Drink It Down Lady
TTITLE13=Ronnie McDowell - Paralyzed
TTITLE14=Terri Gibbs - Hide Love In My Heart
TTITLE15=Osmond Brothers - Where Does An Angel Go
TTITLE16=Willie Nelson - And, So Will You Love Me
TTITLE17=Mickey Gilley - The Boy Who Didn't Pass
TTITLE18=Oak Ridge Quartet - Someday
TTITLE19=Terri Gibbs - She Don't Know
EXTD=YEAR: 1999
EXTT0=
EXTT1=
EXTT2=
EXTT3=
EXTT4=
EXTT5=
EXTT6=
EXTT7=
EXTT8=
EXTT9=
EXTT10=
EXTT11=
EXTT12=
EXTT13=
EXTT14=
EXTT15=
EXTT16=
EXTT17=
EXTT18=
EXTT19=
PLAYORDER=
